<svg width="26" height="20" viewBox="0 0 26 20" fill="none" xmlns="http://www.w3.org/2000/svg">
<path d="M22.8314 5.44717C22.8314 5.66503 22.8314 5.8829 22.8314 6.06964C22.8314 12.5122 17.724 19.9507 8.41438 19.9507C5.53744 19.9507 2.88678 19.1415 0.624023 17.772C1.01192 17.8032 1.43215 17.8343 1.82005 17.8343C4.17979 17.8343 6.3779 17.0562 8.12345 15.749C5.89302 15.7179 4.01816 14.2862 3.40398 12.3566C3.72724 12.4188 4.01816 12.4499 4.37374 12.4499C4.82629 12.4499 5.27884 12.3877 5.69907 12.2632C3.37166 11.8275 1.6261 9.86669 1.6261 7.50131C1.6261 7.47019 1.6261 7.47019 1.6261 7.43907C2.30493 7.81255 3.08073 8.03041 3.92119 8.06153C2.56353 7.19008 1.65843 5.69616 1.65843 3.98437C1.65843 3.08179 1.91703 2.24146 2.33726 1.52562C4.82629 4.48235 8.576 6.41199 12.7783 6.62986C12.6813 6.2875 12.649 5.8829 12.649 5.50942C12.649 2.80168 14.9117 0.623047 17.724 0.623047C19.1786 0.623047 20.504 1.21439 21.4091 2.14809C22.5728 1.93023 23.6395 1.52562 24.6416 0.965404C24.2537 2.11697 23.4456 3.05067 22.4112 3.67314C23.4456 3.54864 24.4153 3.29966 25.3204 2.89505C24.6739 3.891 23.8335 4.76246 22.8314 5.44717Z" fill="white"/>
</svg>
