<svg width="22" height="20" viewBox="0 0 22 20" fill="none" xmlns="http://www.w3.org/2000/svg">
<path fill-rule="evenodd" clip-rule="evenodd" d="M16.6107 19.7067C17.8857 20.2883 18.3638 19.0696 18.3638 19.0696L21.7373 1.39712C21.7107 0.206035 20.1701 0.926228 20.1701 0.926228L1.28399 8.65446C1.28399 8.65446 0.380858 8.98685 0.460546 9.56855C0.540234 10.1502 1.25743 10.4272 1.25743 10.4272L6.01215 12.0892C6.01215 12.0892 7.44653 16.9921 7.73872 17.9339C8.00435 18.848 8.24341 18.8757 8.24341 18.8757C8.50904 18.9865 8.7481 18.7926 8.7481 18.7926L11.8294 15.8841L16.6107 19.7067ZM17.4342 4.52743C17.4342 4.52743 18.0982 4.11193 18.0717 4.52743C18.0717 4.52743 18.1779 4.58283 17.8326 4.97063C17.5138 5.30302 9.99661 12.3388 8.98722 13.2805C8.90754 13.3359 8.85441 13.419 8.85441 13.5298L8.56222 16.1336C8.5091 16.4106 8.16378 16.4383 8.08409 16.189L6.83565 11.9233C6.78252 11.7571 6.83565 11.5632 6.99502 11.4524L17.4342 4.52743Z" fill="white"/>
</svg>
