<svg width="32" height="18" viewBox="0 0 32 18" fill="none" xmlns="http://www.w3.org/2000/svg">
<path fill-rule="evenodd" clip-rule="evenodd" d="M31.1462 1.86005C31.3627 1.18958 31.1462 0.696777 30.1159 0.696777H26.7093C25.843 0.696777 25.444 1.12244 25.2274 1.59195C25.2274 1.59195 23.4949 5.51467 21.0407 8.06275C20.2467 8.80036 19.8858 9.03478 19.4527 9.03478C19.2362 9.03478 18.9227 8.80036 18.9227 8.12989V1.86005C18.9227 1.0553 18.6714 0.696777 17.9494 0.696777H12.5962C12.055 0.696777 11.7294 1.07022 11.7294 1.42422C11.7294 2.18715 12.9563 2.36302 13.0828 4.50873V9.16928C13.0828 10.191 12.8843 10.3764 12.4511 10.3764C11.2963 10.3764 8.4873 6.43584 6.82098 1.92719C6.49443 1.05078 6.16691 0.696777 5.29628 0.696777H1.88966C0.916343 0.696777 0.72168 1.12244 0.72168 1.59195C0.72168 2.43016 1.87677 6.58775 6.09927 12.0863C8.91459 15.841 12.8804 17.8769 16.4894 17.8769C18.6551 17.8769 18.9227 17.4248 18.9227 16.646V13.8079C18.9227 12.9037 19.1279 12.7233 19.8133 12.7233C20.319 12.7233 21.185 12.9579 23.2063 14.7684C25.516 16.9139 25.8966 17.8769 27.196 17.8769H30.6026C31.5759 17.8769 32.0625 17.4248 31.7817 16.5325C31.4747 15.6432 30.3719 14.3534 28.9085 12.8239C28.1145 11.952 26.9234 11.0132 26.5628 10.5439C26.0574 9.94035 26.2017 9.67225 26.5628 9.13605C26.5628 9.13605 30.713 3.70443 31.1462 1.86028V1.86005Z" fill="white"/>
</svg>
