<svg width="25" height="25" viewBox="0 0 25 25" fill="none" xmlns="http://www.w3.org/2000/svg">
<path d="M18.3373 12.5L11.8578 4.22119C11.7577 4.09424 11.848 3.90625 12.0116 3.90625H13.8988C14.0184 3.90625 14.1332 3.9624 14.2064 4.05518L20.4393 12.019C20.5473 12.1566 20.606 12.3264 20.606 12.5012C20.606 12.6761 20.5473 12.8459 20.4393 12.9834L14.2064 20.9448C14.1332 21.04 14.0184 21.0938 13.8988 21.0938H12.0116C11.848 21.0938 11.7577 20.9058 11.8578 20.7788L18.3373 12.5ZM10.9154 12.5L4.43592 4.22119C4.33583 4.09424 4.42616 3.90625 4.58973 3.90625H6.47694C6.59657 3.90625 6.71132 3.9624 6.78456 4.05518L13.0175 12.019C13.1254 12.1566 13.1841 12.3264 13.1841 12.5012C13.1841 12.6761 13.1254 12.8459 13.0175 12.9834L6.78456 20.9448C6.71132 21.04 6.59657 21.0938 6.47694 21.0938H4.58973C4.42616 21.0938 4.33583 20.9058 4.43592 20.7788L10.9154 12.5Z" fill="white"/>
</svg>
