<svg width="25" height="25" viewBox="0 0 25 25" fill="none" xmlns="http://www.w3.org/2000/svg">
<path d="M18.888 0H6.10708V2.26297H1.73438V5.61913C1.73438 8.03024 3.69596 9.99183 6.10708 9.99183H6.1837C6.58726 12.6124 8.5846 14.7017 11.149 15.2534V18.8752H9.58072C9.09543 18.8752 8.7072 19.2685 8.7072 19.7487V20.898H7.36882V25H17.6314V20.898H16.293V19.7487C16.293 19.2634 15.8997 18.8752 15.4195 18.8752H13.8512V15.2534C16.4207 14.7017 18.413 12.6073 18.8165 9.99183H18.8931C21.3043 9.99183 23.2658 8.03024 23.2658 5.61913V2.26297H18.8931V0H18.888ZM6.10708 7.77993C4.91684 7.77993 3.94627 6.80936 3.94627 5.61913V4.47487H6.10708V7.77993ZM15.3991 6.2168L14.0862 7.3253L14.4949 8.99571C14.5715 9.30731 14.2293 9.55762 13.9534 9.38905L12.4976 8.47977L11.0366 9.38394C10.7607 9.55251 10.4185 9.30731 10.4951 8.9906L10.9038 7.32019L9.59604 6.2168C9.35084 6.00736 9.47855 5.6038 9.80037 5.58337L11.5117 5.46077L12.1655 3.86698C12.2881 3.56559 12.7121 3.56559 12.8347 3.86698L13.4835 5.45566L15.1947 5.57826C15.5166 5.6038 15.6443 6.00736 15.3991 6.2168ZM21.0437 4.47487V5.61913C21.0437 6.80936 20.0783 7.77993 18.888 7.77993V4.47487H21.0437Z" fill="#FFEB36"/>
</svg>
