<svg width="19" height="19" viewBox="0 0 19 19" fill="none" xmlns="http://www.w3.org/2000/svg">
<path d="M16.4665 10.1333C16.4665 14.326 13.6925 17.7333 9.49987 17.7333C5.3072 17.7333 2.5332 14.326 2.5332 10.1333C5.40132 10.1575 7.94111 11.9911 8.86654 14.706V8.86665H5.69987C4.65056 8.86665 3.79987 8.01596 3.79987 6.96665V3.16665C3.79987 2.81692 4.08348 2.53332 4.4332 2.53332C4.63258 2.53332 4.8203 2.62718 4.93987 2.78665L6.87787 5.31998L8.96787 1.51999C9.15762 1.22612 9.54965 1.14189 9.84352 1.33163C9.91888 1.3804 9.9831 1.44449 10.0319 1.51999L12.1219 5.31998L14.0599 2.78665C14.2698 2.50684 14.6667 2.4501 14.9465 2.65998C15.106 2.77956 15.1999 2.96728 15.1999 3.16665V6.96665C15.1999 8.01596 14.3492 8.86665 13.2999 8.86665H10.1332V14.706C11.0586 11.9911 13.5984 10.1575 16.4665 10.1333Z" fill="#EB70FF"/>
</svg>
