<svg width="20" height="20" viewBox="0 0 20 20" fill="none" xmlns="http://www.w3.org/2000/svg">
<g clip-path="url(#clip0_447_49)">
<path d="M19.9554 7.6781C19.8484 7.34889 19.5639 7.10897 19.2214 7.05926L13.413 6.21535L10.8153 0.951579C10.6621 0.641222 10.346 0.444702 9.99997 0.444702C9.65385 0.444702 9.33773 0.641222 9.18461 0.951579L6.58713 6.21529L0.778527 7.0592C0.436042 7.10897 0.151447 7.34889 0.0445189 7.67804C-0.062409 8.00724 0.0267582 8.36858 0.27462 8.61014L4.47772 12.7067L3.48512 18.4924C3.42663 18.8335 3.56684 19.1782 3.84683 19.3817C4.00522 19.4968 4.19283 19.5553 4.38134 19.5553C4.52604 19.5553 4.67133 19.5208 4.80439 19.4509L9.99991 16.7196L15.1954 19.4509C15.3292 19.5213 15.4758 19.5548 15.621 19.5553C16.1226 19.5546 16.5289 19.1478 16.5289 18.6461C16.5289 18.5763 16.5211 18.5082 16.5061 18.4429L15.5222 12.7068L19.7253 8.61014C19.9732 8.36858 20.0623 8.00724 19.9554 7.6781Z" fill="#D31027"/>
</g>
<defs>
<clipPath id="clip0_447_49">
<rect width="20" height="20" fill="white"/>
</clipPath>
</defs>
</svg>
