<svg width="58" height="58" viewBox="0 0 58 58" fill="none" xmlns="http://www.w3.org/2000/svg">
<path d="M43.5001 26.1H40.6001V17.4C40.6001 11.02 35.3801 5.80005 29.0001 5.80005C22.6201 5.80005 17.4001 11.02 17.4001 17.4V26.1H14.5001C13.0501 26.1 11.6001 27.55 11.6001 29V49.3C11.6001 50.75 13.0501 52.2 14.5001 52.2H43.5001C44.9501 52.2 46.4001 50.75 46.4001 49.3V29C46.4001 27.55 44.9501 26.1 43.5001 26.1ZM31.9001 46.4H26.1001L27.2601 40.02C25.8101 39.44 24.6501 37.7 24.6501 36.25C24.6501 33.93 26.6801 31.9 29.0001 31.9C31.3201 31.9 33.3501 33.93 33.3501 36.25C33.3501 37.99 32.4801 39.44 30.7401 40.02L31.9001 46.4ZM34.8001 26.1H23.2001V17.4C23.2001 14.21 25.8101 11.6 29.0001 11.6C32.1901 11.6 34.8001 14.21 34.8001 17.4V26.1Z" fill="white"/>
</svg>
